<?xml version="1.0" encoding="UTF-8"?>
<svg version="1.1" xmlns="http://www.w3.org/2000/svg" width="1007" height="1007">
<path d="M0 0 C3.4250278 1.17861251 5.00182831 2.90077145 7.46875 5.5390625 C10.36659554 8.55605588 13.22423234 11.50987216 16.40625 14.2265625 C20.2548447 17.51977057 23.95522717 20.95734124 27.65625 24.4140625 C31.42166642 27.93013991 35.19010254 31.42568593 39.09375 34.7890625 C42.18027888 37.44963729 45.03684331 40.27704717 47.89453125 43.1796875 C50.28223652 45.53033305 52.80581068 47.70072023 55.34375 49.88671875 C58.73928252 52.86354541 62.04821997 55.93327019 65.35620117 59.00683594 C67.58466036 61.06592778 69.82759103 63.04971842 72.20703125 64.93359375 C74.88632925 67.10010745 77.23733394 69.46160215 79.65625 71.9140625 C81.50079399 73.63278129 83.35552544 75.3406129 85.21875 77.0390625 C86.28387437 78.01169662 87.34897796 78.98435351 88.4140625 79.95703125 C88.95321289 80.44864746 89.49236328 80.94026367 90.04785156 81.44677734 C92.5666374 83.74457681 95.08020254 86.04803293 97.59375 88.3515625 C98.32174805 89.0178064 98.32174805 89.0178064 99.06445312 89.69750977 C101.78452958 92.18898216 104.49473745 94.6905182 107.1953125 97.203125 C107.78320557 97.74912354 108.37109863 98.29512207 108.97680664 98.85766602 C110.11306787 99.91366436 111.24774843 100.97136682 112.38061523 102.03100586 C114.72762564 104.21060867 116.98389517 106.13249261 119.65625 107.9140625 C119.65625 108.5740625 119.65625 109.2340625 119.65625 109.9140625 C120.22472656 110.16542969 120.79320312 110.41679688 121.37890625 110.67578125 C123.96990132 112.08460704 125.90958697 113.74680988 128.09375 115.7265625 C128.88394531 116.44199219 129.67414062 117.15742187 130.48828125 117.89453125 C132.93792675 120.17645328 135.28914781 122.54696031 137.65625 124.9140625 C139.41005892 126.4394684 141.18481226 127.9381735 142.9609375 129.4375 C145.30773215 131.48148244 147.45628541 133.71409791 149.65625 135.9140625 C151.0484375 136.996875 151.0484375 136.996875 152.46875 138.1015625 C153.190625 138.6996875 153.9125 139.2978125 154.65625 139.9140625 C154.65625 140.5740625 154.65625 141.2340625 154.65625 141.9140625 C155.50509766 142.26791016 155.50509766 142.26791016 156.37109375 142.62890625 C159.17927052 144.20820566 161.00007481 146.14092256 163.21875 148.4765625 C166.70662137 152.04638092 170.25126093 155.30668822 174.15625 158.4140625 C178.88482268 162.18891742 183.11139625 166.2687542 187.33984375 170.58984375 C189.89898939 173.15762057 192.5754953 175.51569313 195.328125 177.87109375 C198.49891073 180.65351143 201.57351494 183.53478958 204.65625 186.4140625 C208.40017855 189.9103689 212.14602361 193.38649633 216.03125 196.7265625 C219.41393924 199.64143302 222.52932354 202.7717888 225.6640625 205.94921875 C228.1938618 208.44429531 230.84843327 210.76306481 233.5390625 213.08203125 C244.41104527 222.48970638 254.91355529 232.33732287 265.40625 242.1640625 C270.96009047 247.36763982 270.96009047 247.36763982 276.65625 252.4140625 C281.18509734 256.31280934 285.51487088 260.42446051 289.87573242 264.50854492 C297.33544106 271.49350268 304.85257913 278.41209383 312.46875 285.2265625 C317.41868249 289.66635702 322.26825788 294.20975386 327.12158203 298.75439453 C331.42830042 302.7820646 335.7770112 306.75638364 340.17578125 310.68359375 C342.05992179 312.37783666 343.93079083 314.08267028 345.79296875 315.80078125 C346.33091064 316.29682861 346.86885254 316.79287598 347.4230957 317.30395508 C348.46602976 318.26708972 349.50761846 319.23168404 350.54760742 320.19799805 C352.6353269 322.12482517 354.70136486 323.94658717 357.0078125 325.609375 C357.55179688 326.03992188 358.09578125 326.47046875 358.65625 326.9140625 C358.65625 327.5740625 358.65625 328.2340625 358.65625 328.9140625 C359.24470703 329.18033447 359.83316406 329.44660645 360.43945312 329.72094727 C362.70650165 330.94110873 364.26935284 332.22940452 366.125 334.00390625 C367.09723511 334.92586792 367.09723511 334.92586792 368.08911133 335.86645508 C368.77126709 336.52154053 369.45342285 337.17662598 370.15625 337.8515625 C371.58677683 339.20882123 373.01777099 340.56558757 374.44921875 341.921875 C375.15739746 342.59508789 375.86557617 343.26830078 376.59521484 343.96191406 C379.53020813 346.74184848 382.49261859 349.49078931 385.46875 352.2265625 C386.40332031 353.08894531 387.33789062 353.95132812 388.30078125 354.83984375 C390.67199789 357.02104135 390.67199789 357.02104135 393.65625 358.9140625 C393.65625 359.5740625 393.65625 360.2340625 393.65625 360.9140625 C394.23890625 361.16800781 394.8215625 361.42195313 395.421875 361.68359375 C397.89813033 363.04726583 399.46145626 364.55631453 401.40625 366.6015625 C406.14171529 371.46094651 410.99881152 376.14243684 416.65625 379.9140625 C416.65625 380.5740625 416.65625 381.2340625 416.65625 381.9140625 C417.24921875 382.17832031 417.8421875 382.44257813 418.453125 382.71484375 C420.73654054 383.95776675 422.13051723 385.21807896 423.90625 387.1015625 C426.2846154 389.61532989 428.77911214 391.91734689 431.390625 394.18359375 C436.27516171 398.42403431 440.96107897 402.86101963 445.65625 407.30859375 C449.58503167 411.01484678 453.58241769 414.61506838 457.66113281 418.15527344 C461.71600933 421.72983664 465.61557421 425.47401559 469.5390625 429.19140625 C470.17328125 429.78824219 470.8075 430.38507813 471.4609375 431 C472.02796387 431.5367334 472.59499023 432.0734668 473.17919922 432.62646484 C474.64506979 434.01290137 474.64506979 434.01290137 476.65625 434.9140625 C476.65625 435.5740625 476.65625 436.2340625 476.65625 436.9140625 C477.64625 437.2440625 478.63625 437.5740625 479.65625 437.9140625 C479.65625 438.5740625 479.65625 439.2340625 479.65625 439.9140625 C480.18863281 440.130625 480.72101562 440.3471875 481.26953125 440.5703125 C484.53238342 442.40733565 487.12387994 444.8746422 489.84375 447.4140625 C490.38966797 447.91292969 490.93558594 448.41179687 491.49804688 448.92578125 C495.52200641 452.64557532 495.52200641 452.64557532 496.65625 454.9140625 C495.3822911 456.95239674 494.04563077 458.95258376 492.65625 460.9140625 C491.99625 460.9140625 491.33625 460.9140625 490.65625 460.9140625 C490.32625 461.9040625 489.99625 462.8940625 489.65625 463.9140625 C488.99625 463.9140625 488.33625 463.9140625 487.65625 463.9140625 C487.40174072 464.49526855 487.14723145 465.07647461 486.88500977 465.67529297 C485.52566324 468.15198831 484.01713903 469.76540695 481.99609375 471.734375 C481.28517578 472.43433594 480.57425781 473.13429688 479.84179688 473.85546875 C479.09994141 474.57605469 478.35808594 475.29664063 477.59375 476.0390625 C476.12151807 477.47693811 474.65135844 478.91693958 473.18359375 480.359375 C472.53124756 480.99375488 471.87890137 481.62813477 471.20678711 482.28173828 C469.56739 483.84865417 469.56739 483.84865417 468.65625 485.9140625 C467.99625 485.9140625 467.33625 485.9140625 466.65625 485.9140625 C466.32625 486.9040625 465.99625 487.8940625 465.65625 488.9140625 C464.99625 488.9140625 464.33625 488.9140625 463.65625 488.9140625 C463.40875 489.4915625 463.16125 490.0690625 462.90625 490.6640625 C461.47325012 493.24346229 459.87200324 494.97527842 457.65625 496.9140625 C456.99625 496.9140625 456.33625 496.9140625 455.65625 496.9140625 C455.41616211 497.48084717 455.17607422 498.04763184 454.92871094 498.6315918 C453.39338622 501.38557314 451.5505167 503.22803403 449.296875 505.43359375 C448.42804687 506.29146484 447.55921875 507.14933594 446.6640625 508.03320312 C445.75398437 508.92201172 444.84390625 509.81082031 443.90625 510.7265625 C436.84231032 517.58336315 436.84231032 517.58336315 430.23046875 524.8671875 C428.26942932 527.18829639 426.53208364 528.95201235 424.21875 530.8515625 C421.76016155 532.88974297 419.65460485 534.97521166 417.59375 537.4140625 C413.60130071 542.12333791 409.21430953 546.41076948 404.80639648 550.7265625 C401.28097867 554.20125842 398.01939747 557.76419836 394.92016602 561.62670898 C394.50307373 562.05153564 394.08598145 562.4763623 393.65625 562.9140625 C392.99625 562.9140625 392.33625 562.9140625 391.65625 562.9140625 C391.65625 563.5740625 391.65625 564.2340625 391.65625 564.9140625 C390.02715449 566.64171337 388.37417095 568.27885034 386.65625 569.9140625 C385.64381939 570.91650666 384.63381517 571.92140603 383.62597656 572.9284668 C383.08902161 573.46219406 382.55206665 573.99592133 381.99884033 574.54582214 C379.59684847 576.93439783 377.19754579 579.32566742 374.79833984 581.71704102 C373.5306657 582.97964446 372.26210172 584.24135509 370.99267578 585.50219727 C369.154235 587.32855862 367.31899903 589.15808693 365.484375 590.98828125 C364.91462952 591.55286545 364.34488403 592.11744965 363.75787354 592.69914246 C360.84747489 595.53343829 360.84747489 595.53343829 358.65625 598.9140625 C357.99625 598.9140625 357.33625 598.9140625 356.65625 598.9140625 C356.65625 599.5740625 356.65625 600.2340625 356.65625 600.9140625 C355.53697329 602.10117416 354.40691944 603.27985223 353.2265625 604.40625 C352.07364341 605.51328176 350.94691237 606.64775507 349.8359375 607.796875 C348.91167969 608.75207031 348.91167969 608.75207031 347.96875 609.7265625 C347.38738281 610.33113281 346.80601562 610.93570313 346.20703125 611.55859375 C344.65625 612.9140625 344.65625 612.9140625 342.65625 612.9140625 C342.25442505 613.80593262 342.25442505 613.80593262 341.84448242 614.71582031 C340.64414327 616.93646007 339.44922002 618.3384232 337.64453125 620.0859375 C337.05486572 620.66408203 336.4652002 621.24222656 335.85766602 621.83789062 C334.92265259 622.7418457 334.92265259 622.7418457 333.96875 623.6640625 C330.08192978 627.47550137 326.23560685 631.25191082 322.71875 635.4140625 C320.20562958 638.38697688 317.50106635 640.8111509 314.49633789 643.27539062 C312.62475152 644.94211315 311.05399288 646.68816276 309.4375 648.6015625 C305.08666304 653.63840444 300.36582449 658.25639556 295.6171875 662.9140625 C291.65199347 666.83332764 287.89210464 670.84072514 284.296875 675.10351562 C282.53615414 677.04659686 280.65800309 678.72275121 278.65625 680.4140625 C275.3715189 683.20545946 272.6348184 686.16929806 269.859375 689.45703125 C266.20516919 693.53237781 262.27415165 697.33504302 258.36669922 701.16625977 C257.7738916 701.75076904 257.18108398 702.33527832 256.5703125 702.9375 C255.7652124 703.72519775 255.7652124 703.72519775 254.94384766 704.52880859 C253.54348997 705.9051004 253.54348997 705.9051004 252.65625 707.9140625 C251.99625 707.9140625 251.33625 707.9140625 250.65625 707.9140625 C250.39199219 708.51734375 250.12773438 709.120625 249.85546875 709.7421875 C248.59869926 712.0182912 247.50184838 713.08224683 245.46875 714.6640625 C242.91092091 716.75321892 240.72927046 718.88970862 238.61328125 721.421875 C233.87720644 726.91297623 228.69061154 731.95157266 223.53125 737.0390625 C216.27705897 744.04907778 216.27705897 744.04907778 209.6015625 751.59375 C208.95960938 752.35945312 208.31765625 753.12515625 207.65625 753.9140625 C206.99625 753.9140625 206.33625 753.9140625 205.65625 753.9140625 C205.33539429 754.72496338 205.33539429 754.72496338 205.00805664 755.55224609 C203.17050245 758.762739 200.65395951 761.14279021 198.02734375 763.703125 C197.20279442 764.51987198 197.20279442 764.51987198 196.36158752 765.3531189 C194.61033824 767.08660029 192.85253312 768.81322801 191.09375 770.5390625 C189.33229189 772.27290402 187.57231377 774.00818433 185.81520081 775.74642944 C184.72283495 776.82653617 183.62780704 777.90395853 182.52989197 778.97842407 C179.74073055 781.67719739 179.74073055 781.67719739 177.65625 784.9140625 C176.99625 784.9140625 176.33625 784.9140625 175.65625 784.9140625 C175.65625 785.5740625 175.65625 786.2340625 175.65625 786.9140625 C174.99625 786.9140625 174.33625 786.9140625 173.65625 786.9140625 C173.65625 787.5740625 173.65625 788.2340625 173.65625 788.9140625 C172.99625 788.9140625 172.33625 788.9140625 171.65625 788.9140625 C171.38544113 789.51051575 171.11463226 790.10696899 170.83561707 790.72149658 C169.66929268 792.8898148 168.53043908 794.27668852 166.78637695 795.99511719 C166.2084993 796.56961609 165.63062164 797.14411499 165.03523254 797.73602295 C164.41130112 798.34649475 163.78736969 798.95696655 163.14453125 799.5859375 C162.49808151 800.22718567 161.85163177 800.86843384 161.18559265 801.52911377 C159.11800974 803.57891012 157.04388776 805.62191695 154.96875 807.6640625 C152.91228754 809.69272512 150.85736681 811.7228881 148.8054657 813.75616455 C147.53048441 815.01908916 146.25284246 816.2793359 144.97200012 817.53631592 C141.13577067 821.33034109 137.57517563 825.26274877 134.13053894 829.41729736 C133.64402359 829.91122986 133.15750824 830.40516235 132.65625 830.9140625 C131.99625 830.9140625 131.33625 830.9140625 130.65625 830.9140625 C130.43187256 831.46441162 130.20749512 832.01476074 129.97631836 832.58178711 C128.24489841 835.64083182 126.03458247 837.75907026 123.53515625 840.23046875 C123.03459213 840.72820297 122.53402802 841.22593719 122.01829529 841.73875427 C120.42309824 843.32279924 118.82108888 844.89974547 117.21875 846.4765625 C116.14472208 847.54055127 115.07114937 848.60499976 113.99804688 849.66992188 C112.02695925 851.62470668 110.05278437 853.57616967 108.07641602 855.52563477 C106.262957 857.31531191 104.45446139 859.10910641 102.65625 860.9140625 C100.71875 860.1640625 100.71875 860.1640625 98.65625 858.9140625 C97.90625 856.7890625 97.90625 856.7890625 97.65625 854.9140625 C96.99625 854.9140625 96.33625 854.9140625 95.65625 854.9140625 C94.421875 853.2109375 94.421875 853.2109375 92.90625 850.6640625 C89.38057733 844.95055103 85.58903868 839.46177337 81.71875 833.9765625 C77.19919141 827.56329109 72.76335541 821.11696921 68.4453125 814.56640625 C66.57842522 811.79868471 64.63292463 809.10432431 62.65625 806.4140625 C60.06377223 802.8843043 57.56596001 799.32090313 55.15625 795.6640625 C51.24661698 789.74616095 47.211128 783.92075823 43.15625 778.1015625 C42.47175781 777.11921631 41.78726563 776.13687012 41.08203125 775.12475586 C38.94097636 772.05391524 36.79881595 768.983849 34.65625 765.9140625 C31.82150334 761.85254596 28.98782738 757.79028931 26.15625 753.7265625 C25.48207031 752.75904053 24.80789063 751.79151855 24.11328125 750.79467773 C20.13231308 745.07004947 16.22699261 739.30682673 12.390625 733.484375 C9.86628158 729.74334354 7.20003068 726.11165044 4.515625 722.484375 C2.48352411 719.67529436 0.57226946 716.80368317 -1.34375 713.9140625 C-3.4394177 710.8249144 -5.5476379 707.74438524 -7.65625 704.6640625 C-8.24019531 703.81070313 -8.82414062 702.95734375 -9.42578125 702.078125 C-12.73035953 697.25403081 -16.05856818 692.4485799 -19.42578125 687.66796875 C-22.15565567 683.74829163 -24.84009551 679.79788613 -27.53125 675.8515625 C-32.34048699 668.80111422 -37.22449673 661.80921263 -42.16577148 654.85083008 C-45.70028689 649.86075251 -49.10259424 644.80064874 -52.46875 639.6953125 C-55.03916471 635.88253069 -57.74926785 632.18016028 -60.484375 628.484375 C-62.51623933 625.67562137 -64.42826717 622.80339828 -66.34375 619.9140625 C-68.06370984 617.38688868 -69.79733123 614.86917336 -71.53125 612.3515625 C-72.25634766 611.29775391 -72.25634766 611.29775391 -72.99609375 610.22265625 C-76.66702766 604.89014173 -80.35166325 599.56723395 -84.0390625 594.24609375 C-86.60697659 590.53676078 -89.16337106 586.8195379 -91.71875 583.1015625 C-92.17950928 582.43141113 -92.64026855 581.76125977 -93.11499023 581.07080078 C-95.45914083 577.66031225 -97.80029225 574.24781637 -100.13671875 570.83203125 C-105.01769212 563.70318475 -109.94095932 556.61161124 -114.99633789 549.60498047 C-117.52683588 546.0916766 -119.94958989 542.52126374 -122.34375 538.9140625 C-124.12677708 536.30393709 -125.92332908 533.70317294 -127.71875 531.1015625 C-131.64363412 525.40501566 -135.53971033 519.69235061 -139.34375 513.9140625 C-137.1369867 510.05751449 -134.64172363 506.60063304 -131.90625 503.1015625 C-127.98286136 498.05364971 -124.11224577 492.96995886 -120.28125 487.8515625 C-119.77875732 487.18213623 -119.27626465 486.51270996 -118.75854492 485.82299805 C-116.3709587 482.63890407 -113.99674421 479.44651643 -111.65234375 476.23046875 C-111.23927979 475.66787354 -110.82621582 475.10527832 -110.40063477 474.52563477 C-109.29107609 473.01268355 -108.18826687 471.49478903 -107.0859375 469.9765625 C-106.51101563 469.2959375 -105.93609375 468.6153125 -105.34375 467.9140625 C-104.68375 467.9140625 -104.02375 467.9140625 -103.34375 467.9140625 C-103.10398437 467.2128125 -102.86421875 466.5115625 -102.6171875 465.7890625 C-101.12670538 462.42404765 -99.20914426 459.83178526 -96.96875 456.9140625 C-96.19789063 455.9034375 -95.42703125 454.8928125 -94.6328125 453.8515625 C-92.55733784 451.18815475 -90.45304104 448.5506763 -88.34375 445.9140625 C-86.71383223 443.81345891 -85.08835986 441.71006388 -83.46875 439.6015625 C-82.85580078 438.80588867 -82.85580078 438.80588867 -82.23046875 437.99414062 C-79.93856815 435.01324187 -77.66737163 432.0180005 -75.4140625 429.0078125 C-72.33405641 424.89341716 -69.21856594 420.8069869 -66.09375 416.7265625 C-65.52873779 415.98825195 -64.96372559 415.24994141 -64.3815918 414.48925781 C-58.50734955 406.81616883 -52.61484711 399.15720225 -46.71484375 391.50390625 C-46.27615967 390.93446289 -45.83747559 390.36501953 -45.38549805 389.77832031 C-44.17927639 388.21258031 -42.97247286 386.64728863 -41.765625 385.08203125 C-39.97726768 382.74274449 -38.20198442 380.39622237 -36.4375 378.0390625 C-33.34966337 373.91425848 -30.2264852 369.81732797 -27.09375 365.7265625 C-26.52873779 364.98825195 -25.96372559 364.24994141 -25.3815918 363.48925781 C-20.37982712 356.95582187 -15.36413756 350.43319544 -10.34375 343.9140625 C-9.09534168 342.29157525 -7.84717441 340.66890292 -6.59912109 339.04614258 C-5.76760393 337.96510558 -4.93590064 336.88421173 -4.10400391 335.8034668 C-1.95490289 333.01115787 0.19099632 330.21646849 2.33203125 327.41796875 C2.77353516 326.84175781 3.21503906 326.26554687 3.66992188 325.671875 C4.89145227 324.07745637 6.11178245 322.48211843 7.33203125 320.88671875 C9.7142931 317.83982587 12.16533967 314.87229406 14.65625 311.9140625 C19.02112906 313.36902219 20.24960831 316.74583642 22.46875 320.5390625 C23.45016596 322.18250364 24.43195527 323.82572186 25.4140625 325.46875 C25.93645508 326.34885742 26.45884766 327.22896484 26.99707031 328.13574219 C29.30956921 332.00805493 31.66942795 335.85077126 34.02612305 339.69628906 C38.50254428 347.0052718 42.9524111 354.31928465 47.15625 361.7890625 C49.67734868 366.26267164 52.34048652 370.55326654 55.234375 374.79296875 C58.97847979 380.37826792 62.28016672 386.23780954 65.57104492 392.09741211 C68.76247618 397.76641186 72.1508903 403.16548269 75.953125 408.44921875 C79.15758571 413.08686716 81.85776322 418.02513981 84.65625 422.9140625 C86.29433517 425.73112514 87.94262749 428.54212461 89.59375 431.3515625 C90.02421631 432.08407227 90.45468262 432.81658203 90.89819336 433.57128906 C94.01790833 438.8648511 97.21665749 444.10504532 100.453125 449.328125 C104.76545055 456.31636631 108.95852435 463.37888616 113.16503906 470.43115234 C114.21978901 472.18734209 115.28532439 473.93707533 116.35839844 475.68212891 C117.18259277 477.02863525 117.18259277 477.02863525 118.0234375 478.40234375 C118.5272998 479.21872314 119.03116211 480.03510254 119.55029297 480.8762207 C120.65625 482.9140625 120.65625 482.9140625 120.65625 484.9140625 C121.31625 484.9140625 121.97625 484.9140625 122.65625 484.9140625 C123.75024414 486.42016602 123.75024414 486.42016602 124.94140625 488.54296875 C125.6075293 489.71448486 125.6075293 489.71448486 126.28710938 490.90966797 C126.99577148 492.18028076 126.99577148 492.18028076 127.71875 493.4765625 C128.70861743 495.22063025 129.69951706 496.96411253 130.69140625 498.70703125 C131.18785645 499.58278809 131.68430664 500.45854492 132.19580078 501.36083984 C134.29748784 505.03510318 136.46809769 508.6658143 138.65625 512.2890625 C139.01726807 512.8879126 139.37828613 513.4867627 139.75024414 514.10375977 C141.27703482 516.63419025 142.80977942 519.15326682 144.40625 521.640625 C145.65625 523.9140625 145.65625 523.9140625 145.65625 526.9140625 C140.63045588 526.36424527 136.64660911 524.66537062 132.21875 522.3515625 C131.16506226 521.81366089 131.16506226 521.81366089 130.09008789 521.26489258 C125.55714266 518.93917076 121.07386944 516.52704104 116.59375 514.1015625 C109.25967649 510.13125942 101.7457452 506.56175667 94.21240234 502.98779297 C86.60792268 499.37920603 79.06515442 495.66491255 71.55224609 491.87011719 C68.21651383 490.18807656 64.87338713 488.5208297 61.53125 486.8515625 C60.19788432 486.18496052 58.86455057 485.51829469 57.53125 484.8515625 C56.88414062 484.52800781 56.23703125 484.20445312 55.5703125 483.87109375 C52.55729167 482.36458333 49.54427083 480.85807292 46.53125 479.3515625 C44.84708984 478.51044922 44.84708984 478.51044922 43.12890625 477.65234375 C40.67624278 476.42463257 38.22576489 475.19313328 35.77734375 473.95703125 C35.14006348 473.63613525 34.5027832 473.31523926 33.84619141 472.98461914 C32.06996538 472.09003873 30.29471831 471.19351535 28.51953125 470.296875 C25.68440874 468.85244258 25.68440874 468.85244258 22.65625 467.9140625 C22.65625 467.2540625 22.65625 466.5940625 22.65625 465.9140625 C18.70745247 469.69742771 15.31265062 473.71701408 11.96875 478.0390625 C11.48341797 478.65910156 10.99808594 479.27914063 10.49804688 479.91796875 C8.45843232 482.53430191 6.49713596 485.15273356 4.65625 487.9140625 C3.99625 487.9140625 3.33625 487.9140625 2.65625 487.9140625 C1.99625 489.5640625 1.33625 491.2140625 0.65625 492.9140625 C-0.00375 492.9140625 -0.66375 492.9140625 -1.34375 492.9140625 C-1.68599609 493.96400391 -1.68599609 493.96400391 -2.03515625 495.03515625 C-3.60988949 498.49956938 -5.80484381 501.13566363 -8.28125 503.9765625 C-9.97460395 505.95090969 -11.66065823 507.93090574 -13.34375 509.9140625 C-13.96378906 510.61402344 -14.58382813 511.31398438 -15.22265625 512.03515625 C-16.55301892 513.82130611 -16.55301892 513.82130611 -16.09155273 515.77368164 C-15.22771179 518.24619016 -14.07117459 519.94416304 -12.5 522.0390625 C-11.91758545 522.8220874 -11.3351709 523.6051123 -10.73510742 524.41186523 C-10.11095947 525.23759033 -9.48681152 526.06331543 -8.84375 526.9140625 C-8.20735596 527.76621338 -7.57096191 528.61836426 -6.9152832 529.49633789 C-5.0637744 531.97322646 -3.2044451 534.44407177 -1.34375 536.9140625 C-0.4719994 538.07893581 0.39919103 539.24422879 1.26953125 540.41015625 C3.39237279 543.24940968 5.52270017 546.08284999 7.65625 548.9140625 C12.97056497 555.96613825 18.23693226 563.05066344 23.46875 570.1640625 C30.22602755 579.35039105 37.05735248 588.47921214 43.91748047 597.58886719 C48.61761091 603.83155565 53.28277849 610.09567793 57.859375 616.4296875 C58.98637766 617.98789117 60.12070493 619.54085119 61.265625 621.0859375 C64.65625 625.69566362 64.65625 625.69566362 64.65625 627.9140625 C65.31625 627.9140625 65.97625 627.9140625 66.65625 627.9140625 C68.16015061 629.81879613 69.5391229 631.7259284 70.90625 633.7265625 C71.80450465 635.01275707 72.70433301 636.29785358 73.60546875 637.58203125 C74.09321777 638.2786084 74.5809668 638.97518555 75.08349609 639.69287109 C77.90762317 643.68136973 80.81498509 647.60836589 83.71875 651.5390625 C84.61086182 652.74997559 84.61086182 652.74997559 85.52099609 653.98535156 C88.17499109 657.58203037 90.83955594 661.16886846 93.55078125 664.72265625 C93.97544678 665.28065918 94.4001123 665.83866211 94.83764648 666.41357422 C95.94713799 667.86642033 97.06315022 669.31428042 98.1796875 670.76171875 C99.65625 672.9140625 99.65625 672.9140625 99.65625 674.9140625 C100.31625 674.9140625 100.97625 674.9140625 101.65625 674.9140625 C103.06640625 676.6796875 103.06640625 676.6796875 104.71875 679.1640625 C108.12919571 684.18067247 111.7157464 689.02995501 115.375 693.8671875 C118.32579213 697.80831398 121.18211536 701.81422388 124.02734375 705.83203125 C125.49181752 708.01054691 125.49181752 708.01054691 127.65625 708.9140625 C127.91535156 708.35847656 128.17445313 707.80289063 128.44140625 707.23046875 C129.81276194 704.61563297 131.39847331 702.26869895 133.09375 699.8515625 C133.98900391 698.56572266 133.98900391 698.56572266 134.90234375 697.25390625 C136.65625 694.9140625 136.65625 694.9140625 138.06445312 693.53100586 C139.8651808 691.70183111 141.34862669 689.76400626 142.87890625 687.703125 C143.49459473 686.87723877 144.1102832 686.05135254 144.74462891 685.20043945 C145.39608887 684.32218506 146.04754883 683.44393066 146.71875 682.5390625 C148.08143214 680.71179265 149.4447133 678.88496935 150.80859375 677.05859375 C151.47101074 676.17123535 152.13342773 675.28387695 152.81591797 674.36962891 C156.27891383 669.74893212 159.81336303 665.18429974 163.34472656 660.61572266 C165.95929921 657.22339738 168.55636291 653.81764679 171.15625 650.4140625 C174.99873066 645.38408855 178.85075991 640.36194453 182.71875 635.3515625 C186.33982702 630.65000282 189.9146043 625.91637083 193.46875 621.1640625 C200.65703027 611.55259681 207.9441431 602.01692688 215.27734375 592.515625 C220.30240354 586.00314751 225.26454918 579.44891809 230.19116211 572.86181641 C235.84507962 565.31054409 241.60107263 557.83917666 247.39453125 550.39453125 C247.84618652 549.8121167 248.2978418 549.22970215 248.76318359 548.62963867 C250.01584277 547.0145128 251.27149491 545.40170948 252.52734375 543.7890625 C254.6873727 540.98572067 254.6873727 540.98572067 256.31640625 538.0390625 C256.75855469 537.3378125 257.20070313 536.6365625 257.65625 535.9140625 C258.31625 535.9140625 258.97625 535.9140625 259.65625 535.9140625 C259.90632812 535.18832031 260.15640625 534.46257813 260.4140625 533.71484375 C261.76846134 530.66105768 263.35593329 528.63146381 265.53125 526.1015625 C269.44222189 521.43993632 273.14928332 516.67095847 276.78125 511.7890625 C280.55470705 506.72157739 284.34923357 501.67871445 288.25390625 496.7109375 C289.7472692 494.79743622 291.20543719 492.85995981 292.65625 490.9140625 C291.12217091 487.24925976 288.91939924 484.97275342 286.0859375 482.21875 C285.19003906 481.33832031 284.29414062 480.45789063 283.37109375 479.55078125 C282.43394531 478.63941406 281.49679687 477.72804688 280.53125 476.7890625 C278.66997736 474.97857493 276.81295799 473.16370087 274.9609375 471.34375 C274.13577637 470.54179199 273.31061523 469.73983398 272.46044922 468.91357422 C270.65625 466.9140625 270.65625 466.9140625 270.65625 464.9140625 C270.05804443 464.64634033 269.45983887 464.37861816 268.84350586 464.1027832 C266.62375879 462.89640431 265.3416398 461.75838828 263.66015625 459.89453125 C263.10730957 459.29020264 262.55446289 458.68587402 261.98486328 458.06323242 C261.4020459 457.41588135 260.81922852 456.76853027 260.21875 456.1015625 C254.83308148 450.20539389 249.3204796 444.49223598 243.56860352 438.9519043 C242.22860762 437.64167211 240.9371122 436.2821595 239.65625 434.9140625 C239.65625 434.2540625 239.65625 433.5940625 239.65625 432.9140625 C238.75821655 432.52275146 238.75821655 432.52275146 237.84204102 432.12353516 C235.49795648 430.8264733 234.35784117 429.63422666 232.68359375 427.5625 C229.52997156 423.83541541 226.19485144 420.37861443 222.72265625 416.953125 C222.19602386 416.43216248 221.66939148 415.91119995 221.12680054 415.37445068 C218.93051736 413.20523401 216.73009242 411.04030342 214.52563477 408.87939453 C212.89950081 407.28327351 211.27949105 405.68113927 209.66015625 404.078125 C209.15714493 403.5885733 208.65413361 403.09902161 208.13587952 402.59463501 C206.93763007 401.40522713 205.79141637 400.16381854 204.65625 398.9140625 C204.65625 398.2540625 204.65625 397.5940625 204.65625 396.9140625 C204.05554688 396.65109375 203.45484375 396.388125 202.8359375 396.1171875 C200.52228696 394.84011874 199.42639433 393.70937707 197.78125 391.6640625 C193.70621812 386.82717683 189.233998 382.43573085 184.71923828 378.01464844 C182.03136149 375.36483932 179.43104645 372.71916608 177.0390625 369.796875 C174.71157278 366.980994 172.25464223 364.4801985 169.65625 361.9140625 C168.77855957 361.04160889 167.90086914 360.16915527 166.99658203 359.27026367 C166.06185059 358.34189697 165.12711914 357.41353027 164.1640625 356.45703125 C162.57886789 354.8792224 160.99416034 353.30092617 159.40966797 351.72241211 C158.32853983 350.64630871 157.24651533 349.57110506 156.16357422 348.49682617 C150.63950337 343.01561015 145.18720461 337.53002108 140.13183594 331.60571289 C137.16277723 328.20190618 133.84950773 325.14631957 130.59765625 322.015625 C128.65625 319.9140625 128.65625 319.9140625 128.65625 317.9140625 C128.06457031 317.64851563 127.47289062 317.38296875 126.86328125 317.109375 C124.59462477 315.88068671 123.13777395 314.63018493 121.34375 312.7890625 C120.81136719 312.25023437 120.27898438 311.71140625 119.73046875 311.15625 C117.96458246 309.2473635 116.27365443 307.30210182 114.58203125 305.328125 C110.02895287 300.10165726 105.08995974 295.27798851 100.15625 290.4140625 C94.73429197 285.06879412 89.42176201 279.73114895 84.47021484 273.94628906 C79.93721625 268.86786642 74.93853103 264.20486212 70.06835938 259.453125 C69.24271484 258.6384375 68.41707031 257.82375 67.56640625 256.984375 C66.81496338 256.24977051 66.06352051 255.51516602 65.28930664 254.75830078 C63.65625 252.9140625 63.65625 252.9140625 63.65625 250.9140625 C62.6971875 250.511875 62.6971875 250.511875 61.71875 250.1015625 C59.65625 248.9140625 59.65625 248.9140625 58.65625 245.9140625 C57.32407206 245.24509003 55.99053165 244.57882916 54.65625 243.9140625 C53.2257653 242.46687954 51.855917 240.95869266 50.53125 239.4140625 C46.40384073 234.68917468 42.0475643 230.29353074 37.52734375 225.9453125 C35.65625 223.9140625 35.65625 223.9140625 35.65625 221.9140625 C34.33625 221.2540625 33.01625 220.5940625 31.65625 219.9140625 C31.65625 219.2540625 31.65625 218.5940625 31.65625 217.9140625 C30.66625 217.5840625 29.67625 217.2540625 28.65625 216.9140625 C27.1418457 215.38061523 27.1418457 215.38061523 25.51953125 213.41015625 C21.51837658 208.6956745 17.22563909 204.33564905 12.84375 199.9765625 C12.08126953 199.21021484 11.31878906 198.44386719 10.53320312 197.65429688 C9.80423828 196.92662109 9.07527344 196.19894531 8.32421875 195.44921875 C7.66703857 194.7931665 7.0098584 194.13711426 6.33276367 193.46118164 C4.72244412 191.83135771 4.72244412 191.83135771 2.65625 190.9140625 C2.32625 191.9040625 1.99625 192.8940625 1.65625 193.9140625 C0.01322047 195.60403573 -1.65846312 197.26622644 -3.34375 198.9140625 C-4.92401013 200.77706525 -6.47626782 202.65852386 -8.01171875 204.55859375 C-8.45128906 205.00589844 -8.89085937 205.45320312 -9.34375 205.9140625 C-10.00375 205.9140625 -10.66375 205.9140625 -11.34375 205.9140625 C-11.59769531 206.49671875 -11.85164063 207.079375 -12.11328125 207.6796875 C-13.47695333 210.15594283 -14.98600203 211.71926876 -17.03125 213.6640625 C-20.395833 216.87356452 -23.43344095 220.28216525 -26.47680664 223.79101562 C-29.47545154 227.20100857 -32.59834821 230.49081397 -35.71875 233.7890625 C-39.80455606 238.12599615 -43.87832897 242.46615678 -47.84375 246.9140625 C-52.34829034 251.96152296 -56.98289489 256.88270941 -61.61621094 261.81152344 C-67.5656545 268.14230339 -73.46538357 274.51731446 -79.34375 280.9140625 C-79.81796387 281.42952637 -80.29217773 281.94499023 -80.78076172 282.47607422 C-85.43386753 287.53476228 -90.07408253 292.60332729 -94.65625 297.7265625 C-99.13203439 302.71847338 -103.7146254 307.60733513 -108.30493164 312.49365234 C-112.02534032 316.46446824 -115.64838987 320.49005575 -119.109375 324.69140625 C-120.34375 325.9140625 -120.34375 325.9140625 -122.34375 325.9140625 C-122.56160156 326.4503125 -122.77945312 326.9865625 -123.00390625 327.5390625 C-124.81593934 330.75106284 -127.25840779 333.25797996 -129.78125 335.9140625 C-130.86610422 337.07271184 -131.95073452 338.23157087 -133.03515625 339.390625 C-133.86104248 340.26895996 -133.86104248 340.26895996 -134.70361328 341.16503906 C-137.22715209 343.8561126 -139.72487327 346.57052001 -142.21875 349.2890625 C-142.67427246 349.78374023 -143.12979492 350.27841797 -143.59912109 350.78808594 C-146.10831067 353.52353662 -148.53690802 356.30708355 -150.90625 359.1640625 C-151.710625 360.0715625 -152.515 360.9790625 -153.34375 361.9140625 C-154.00375 361.9140625 -154.66375 361.9140625 -155.34375 361.9140625 C-155.59125 362.47609375 -155.83875 363.038125 -156.09375 363.6171875 C-157.55649867 366.30498819 -159.31179873 368.37811732 -161.34375 370.6640625 C-162.395625 371.86289062 -162.395625 371.86289062 -163.46875 373.0859375 C-165.34375 374.9140625 -165.34375 374.9140625 -167.34375 374.9140625 C-167.59125 375.47609375 -167.83875 376.038125 -168.09375 376.6171875 C-169.55649867 379.30498819 -171.31179873 381.37811732 -173.34375 383.6640625 C-174.395625 384.86289062 -174.395625 384.86289062 -175.46875 386.0859375 C-177.34375 387.9140625 -177.34375 387.9140625 -179.34375 387.9140625 C-179.6015625 388.48640625 -179.859375 389.05875 -180.125 389.6484375 C-181.45740942 392.12535245 -182.99431118 394.0481791 -184.84375 396.1640625 C-185.4521875 396.87046875 -186.060625 397.576875 -186.6875 398.3046875 C-188.34375 399.9140625 -188.34375 399.9140625 -190.34375 399.9140625 C-190.60768555 400.50018311 -190.87162109 401.08630371 -191.14355469 401.69018555 C-192.39263838 404.00464921 -193.73136333 405.60087794 -195.546875 407.49609375 C-196.19068115 408.17341553 -196.8344873 408.8507373 -197.49780273 409.54858398 C-198.18946533 410.26731689 -198.88112793 410.9860498 -199.59375 411.7265625 C-201.04846935 413.2549302 -202.50289074 414.78358156 -203.95703125 416.3125 C-204.69131348 417.08174805 -205.4255957 417.85099609 -206.18212891 418.64355469 C-209.40292371 422.02658967 -212.59508903 425.435931 -215.78125 428.8515625 C-216.36148926 429.47313232 -216.94172852 430.09470215 -217.53955078 430.73510742 C-221.42304175 434.90380447 -225.25286014 439.11674979 -229.046875 443.3671875 C-230.83518667 445.35014533 -232.63670304 447.31644601 -234.453125 449.2734375 C-234.99372559 449.85593262 -235.53432617 450.43842773 -236.09130859 451.03857422 C-237.14986659 452.1771672 -238.21000529 453.31429332 -239.27197266 454.44970703 C-241.32950761 456.66304337 -243.29566984 458.84770752 -245.0703125 461.296875 C-245.49054688 461.83054687 -245.91078125 462.36421875 -246.34375 462.9140625 C-247.00375 462.9140625 -247.66375 462.9140625 -248.34375 462.9140625 C-248.59769531 463.49671875 -248.85164062 464.079375 -249.11328125 464.6796875 C-250.47695333 467.15594283 -251.98600203 468.71926876 -254.03125 470.6640625 C-257.24626801 473.79884833 -260.22909893 477.01575302 -263.1328125 480.4375 C-265.01629637 482.54726815 -266.94607087 484.56391274 -268.9296875 486.578125 C-269.57147949 487.23868896 -270.21327148 487.89925293 -270.87451172 488.57983398 C-272.17406516 489.91402715 -273.48545241 491.23680803 -274.80908203 492.54711914 C-275.40833496 493.16707764 -276.00758789 493.78703613 -276.625 494.42578125 C-277.44581055 495.25275513 -277.44581055 495.25275513 -278.28320312 496.09643555 C-279.57487589 497.91680342 -279.57487589 497.91680342 -279.16625977 500.35668945 C-278.33108322 502.95344644 -277.32547147 504.99729976 -275.90234375 507.3203125 C-275.40565186 508.13918945 -274.90895996 508.95806641 -274.3972168 509.80175781 C-273.86394775 510.66381836 -273.33067871 511.52587891 -272.78125 512.4140625 C-272.23186768 513.31479492 -271.68248535 514.21552734 -271.11645508 515.14355469 C-269.53212693 517.73782517 -267.93866228 520.32629091 -266.34375 522.9140625 C-265.66828125 524.02265625 -264.9928125 525.13125 -264.296875 526.2734375 C-261.17953619 531.37704529 -258.0110402 536.44783338 -254.8359375 541.515625 C-248.64555034 551.39684035 -242.47104691 561.27910871 -236.50390625 571.296875 C-230.19090216 581.89192138 -223.70526724 592.37809633 -217.09375 602.7890625 C-213.34098964 608.70054794 -209.68745303 614.6430781 -206.2109375 620.72265625 C-204.66576432 623.36367402 -203.08517549 625.9718057 -201.4765625 628.57421875 C-200.97068604 629.3933374 -200.46480957 630.21245605 -199.94360352 631.05639648 C-198.93218735 632.68972839 -197.91714568 634.32082176 -196.89819336 635.94946289 C-196.43807861 636.69317139 -195.97796387 637.43687988 -195.50390625 638.203125 C-195.08761963 638.87037598 -194.67133301 639.53762695 -194.24243164 640.22509766 C-193.34375 641.9140625 -193.34375 641.9140625 -193.34375 643.9140625 C-192.68375 643.9140625 -192.02375 643.9140625 -191.34375 643.9140625 C-191.06144531 644.46449219 -190.77914063 645.01492188 -190.48828125 645.58203125 C-185.4835205 655.04851419 -179.74599145 664.05901566 -174.07714844 673.13671875 C-171.34443922 677.51521172 -168.62413076 681.90135366 -165.90625 686.2890625 C-165.3709668 687.15297607 -164.83568359 688.01688965 -164.28417969 688.90698242 C-159.75135047 696.23325221 -155.27108284 703.59089505 -150.79858398 710.95410156 C-144.32715904 721.60153532 -137.79083778 732.20873515 -131.25292969 742.81542969 C-129.25812689 746.05303034 -127.26567904 749.29207276 -125.2734375 752.53125 C-121.80690783 758.16509746 -118.32824114 763.79131197 -114.84375 769.4140625 C-112.67671866 772.9138368 -110.51017168 776.41391078 -108.34375 779.9140625 C-107.73950195 780.89004395 -107.73950195 780.89004395 -107.12304688 781.88574219 C-102.90017372 788.71054898 -98.74603027 795.57277204 -94.63232422 802.46362305 C-92.38538287 806.21516922 -90.08454955 809.92319407 -87.71875 813.6015625 C-84.69380787 818.3062536 -81.88329569 823.11449341 -79.0859375 827.95703125 C-76.89709734 831.67217026 -74.572376 835.28910271 -72.23828125 838.9140625 C-69.59434459 843.10074983 -67.06226298 847.35195598 -64.53955078 851.61254883 C-62.79606711 854.54548629 -61.02609015 857.37059601 -59.07421875 860.17578125 C-57.34375 862.9140625 -57.34375 862.9140625 -57.34375 865.9140625 C-56.68375 865.9140625 -56.02375 865.9140625 -55.34375 865.9140625 C-54.06005859 867.73242188 -54.06005859 867.73242188 -52.6171875 870.2578125 C-52.08706055 871.17175781 -51.55693359 872.08570313 -51.01074219 873.02734375 C-50.46063477 873.97996094 -49.91052734 874.93257812 -49.34375 875.9140625 C-48.27816479 877.67734462 -47.20792745 879.43782465 -46.1328125 881.1953125 C-45.078125 882.93489583 -44.0234375 884.67447917 -42.96875 886.4140625 C-42.42347656 887.30609375 -41.87820313 888.198125 -41.31640625 889.1171875 C-40.80207031 889.96796875 -40.28773438 890.81875 -39.7578125 891.6953125 C-39.2932666 892.45908203 -38.8287207 893.22285156 -38.35009766 894.00976562 C-37.34375 895.9140625 -37.34375 895.9140625 -37.34375 897.9140625 C-36.68375 897.9140625 -36.02375 897.9140625 -35.34375 897.9140625 C-35.02664063 898.5225 -34.70953125 899.1309375 -34.3828125 899.7578125 C-30.574782 906.91101897 -26.37454658 913.75304449 -22.0546875 920.6015625 C-19.25843992 925.03656955 -16.51327076 929.50176686 -13.78125 933.9765625 C-13.31960449 934.73251709 -12.85795898 935.48847168 -12.38232422 936.26733398 C-9.12703549 941.60791629 -5.90737014 946.9691135 -2.70703125 952.34277344 C-0.69989884 955.6994669 1.34717129 959.02641184 3.4375 962.33203125 C3.9008374 963.06534668 4.3641748 963.79866211 4.84155273 964.55419922 C5.74318775 965.97642016 6.64880375 967.39612697 7.55883789 968.81298828 C10.65625 973.69559013 10.65625 973.69559013 10.65625 975.9140625 C6.24618138 975.4835558 3.82624427 972.4923571 0.90625 969.4765625 C0.39964844 968.97318359 -0.10695313 968.46980469 -0.62890625 967.95117188 C-4.34375 964.18125632 -4.34375 964.18125632 -4.34375 961.9140625 C-5.33375 961.5840625 -6.32375 961.2540625 -7.34375 960.9140625 C-7.34375 960.2540625 -7.34375 959.5940625 -7.34375 958.9140625 C-8.33375 958.5840625 -9.32375 958.2540625 -10.34375 957.9140625 C-10.34375 957.2540625 -10.34375 956.5940625 -10.34375 955.9140625 C-11.00375 955.9140625 -11.66375 955.9140625 -12.34375 955.9140625 C-13.578125 954.65625 -13.578125 954.65625 -15.09375 952.7890625 C-19.32920856 947.76792187 -24.00304058 943.22699761 -28.71972656 938.66357422 C-29.31624023 938.07850098 -29.91275391 937.49342773 -30.52734375 936.890625 C-31.06931396 936.36549316 -31.61128418 935.84036133 -32.16967773 935.29931641 C-33.34375 933.9140625 -33.34375 933.9140625 -33.34375 931.9140625 C-34.33375 931.5840625 -35.32375 931.2540625 -36.34375 930.9140625 C-39.52294449 928.01538517 -42.30893392 924.82309726 -45.15625 921.6015625 C-51.37165258 914.63947027 -58.04489671 908.12637554 -64.67724609 901.56469727 C-65.22719238 901.01998779 -65.77713867 900.47527832 -66.34375 899.9140625 C-67.19380615 899.12696899 -67.19380615 899.12696899 -68.06103516 898.32397461 C-69.34375 896.9140625 -69.34375 896.9140625 -69.34375 894.9140625 C-70.00375 894.9140625 -70.66375 894.9140625 -71.34375 894.9140625 C-72.859375 893.375 -72.859375 893.375 -74.59375 891.2890625 C-76.89035073 888.57358491 -79.21525775 886.00143986 -81.78125 883.5390625 C-84.34375 880.9140625 -84.34375 880.9140625 -84.34375 878.9140625 C-85.66375 878.2540625 -86.98375 877.5940625 -88.34375 876.9140625 C-88.34375 876.2540625 -88.34375 875.5940625 -88.34375 874.9140625 C-88.90191406 874.69363281 -89.46007812 874.47320313 -90.03515625 874.24609375 C-93.07899252 872.48983628 -94.96540491 870.23855714 -97.28125 867.6015625 C-101.12314044 863.24900347 -105.0945156 859.12210107 -109.23657227 855.0559082 C-111.37962476 852.94930982 -113.51801305 850.8380476 -115.65625 848.7265625 C-116.39681641 848.00275391 -117.13738281 847.27894531 -117.90039062 846.53320312 C-118.59970703 845.84033203 -119.29902344 845.14746094 -120.01953125 844.43359375 C-120.9772644 843.49157104 -120.9772644 843.49157104 -121.9543457 842.53051758 C-123.34375 840.9140625 -123.34375 840.9140625 -123.34375 838.9140625 C-123.93929688 838.65625 -124.53484375 838.3984375 -125.1484375 838.1328125 C-127.5384937 836.80594856 -128.74878112 835.52296907 -130.46875 833.4140625 C-134.1827942 828.99604913 -138.24670815 825.01643066 -142.40234375 821.015625 C-144.34375 818.9140625 -144.34375 818.9140625 -144.34375 816.9140625 C-145.66375 816.2540625 -146.98375 815.5940625 -148.34375 814.9140625 C-148.34375 814.2540625 -148.34375 813.5940625 -148.34375 812.9140625 C-148.92125 812.6871875 -149.49875 812.4603125 -150.09375 812.2265625 C-152.93966381 810.56644611 -154.34216921 808.52218293 -156.34375 805.9140625 C-158.57112122 803.63236515 -160.82267287 801.39920327 -163.15625 799.2265625 C-164.34375 797.9140625 -164.34375 797.9140625 -164.34375 795.9140625 C-164.91609375 795.6665625 -165.4884375 795.4190625 -166.078125 795.1640625 C-168.69385611 793.72090051 -170.49148456 792.03190028 -172.59375 789.9140625 C-173.30015625 789.2128125 -174.0065625 788.5115625 -174.734375 787.7890625 C-176.34375 785.9140625 -176.34375 785.9140625 -176.34375 783.9140625 C-177.33375 783.5840625 -178.32375 783.2540625 -179.34375 782.9140625 C-180.9921875 781.2421875 -180.9921875 781.2421875 -182.71875 779.1640625 C-185.98510041 775.25637388 -189.51357423 771.70908067 -193.1484375 768.14404297 C-195.15416687 766.17469984 -197.15527253 764.20073261 -199.15625 762.2265625 C-199.84912109 761.55044922 -200.54199219 760.87433594 -201.25585938 760.17773438 C-201.91005859 759.52998047 -202.56425781 758.88222656 -203.23828125 758.21484375 C-203.83487549 757.62872314 -204.43146973 757.04260254 -205.04614258 756.4387207 C-206.34375 754.9140625 -206.34375 754.9140625 -206.34375 752.9140625 C-207.00375 752.9140625 -207.66375 752.9140625 -208.34375 752.9140625 C-208.34375 752.2540625 -208.34375 751.5940625 -208.34375 750.9140625 C-209.00375 750.9140625 -209.66375 750.9140625 -210.34375 750.9140625 C-210.34375 750.2540625 -210.34375 749.5940625 -210.34375 748.9140625 C-211.00375 748.9140625 -211.66375 748.9140625 -212.34375 748.9140625 C-213.75390625 747.48046875 -213.75390625 747.48046875 -215.40625 745.4765625 C-219.47349522 740.69354948 -223.8692104 736.31352593 -228.34375 731.9140625 C-233.31499431 727.02622833 -238.12141815 722.10070007 -242.66455078 716.81152344 C-245.93172879 713.11967879 -249.51687544 709.73966449 -253.06445312 706.3203125 C-254.52656122 704.88707297 -255.93992692 703.40443708 -257.34375 701.9140625 C-257.34375 701.2540625 -257.34375 700.5940625 -257.34375 699.9140625 C-257.93865234 699.65689453 -258.53355469 699.39972656 -259.14648438 699.13476562 C-261.5464018 697.80147817 -262.77063116 696.49983563 -264.5 694.3828125 C-268.67953554 689.44579184 -273.23615186 684.94887078 -277.84375 680.4140625 C-283.01643793 675.3230916 -288.04900064 670.20961468 -292.77587891 664.70019531 C-295.78564373 661.27144423 -299.11725501 658.17831849 -302.40234375 655.015625 C-304.34375 652.9140625 -304.34375 652.9140625 -304.34375 650.9140625 C-305.00375 650.9140625 -305.66375 650.9140625 -306.34375 650.9140625 C-307.6484375 649.5859375 -307.6484375 649.5859375 -309.21875 647.6640625 C-312.42263282 643.88374888 -315.81689159 640.38738434 -319.34375 636.9140625 C-322.58720717 633.71119804 -325.77317063 630.52292033 -328.71875 627.0390625 C-332.05111208 623.11573965 -335.68789809 619.53197095 -339.34375 615.9140625 C-343.57553211 611.72620133 -347.66186195 607.51751385 -351.5078125 602.96875 C-354.50182236 599.61800705 -357.73266912 596.50529026 -360.92871094 593.34863281 C-364.38741635 589.91611318 -367.65582397 586.38231679 -370.80859375 582.6640625 C-372.38928342 580.86215671 -374.05706961 579.20323661 -375.78125 577.5390625 C-378.34375 574.9140625 -378.34375 574.9140625 -378.34375 572.9140625 C-379.00375 572.9140625 -379.66375 572.9140625 -380.34375 572.9140625 C-380.34375 572.2540625 -380.34375 571.5940625 -380.34375 570.9140625 C-381.00375 570.9140625 -381.66375 570.9140625 -382.34375 570.9140625 C-383.89453125 569.33984375 -383.89453125 569.33984375 -385.65625 567.2265625 C-387.78019684 564.71603956 -389.89876344 562.30582829 -392.28125 560.0390625 C-394.34375 557.9140625 -394.34375 557.9140625 -394.34375 555.9140625 C-395.00375 555.9140625 -395.66375 555.9140625 -396.34375 555.9140625 C-397.96875 554.5390625 -397.96875 554.5390625 -399.34375 552.9140625 C-399.34375 552.2540625 -399.34375 551.5940625 -399.34375 550.9140625 C-400.00375 550.9140625 -400.66375 550.9140625 -401.34375 550.9140625 C-402.9296875 549.3046875 -402.9296875 549.3046875 -404.71875 547.1640625 C-406.68132727 544.84502548 -408.6025795 542.66186966 -410.78125 540.5390625 C-412.34375 538.9140625 -412.34375 538.9140625 -412.34375 536.9140625 C-413.33375 536.5840625 -414.32375 536.2540625 -415.34375 535.9140625 C-416.9921875 534.2421875 -416.9921875 534.2421875 -418.71875 532.1640625 C-420.82150626 529.67289904 -422.919551 527.28637722 -425.28125 525.0390625 C-427.34375 522.9140625 -427.34375 522.9140625 -427.34375 520.9140625 C-427.983125 520.6459375 -428.6225 520.3778125 -429.28125 520.1015625 C-431.34375 518.9140625 -431.34375 518.9140625 -432.34375 515.9140625 C-433.00375 515.9140625 -433.66375 515.9140625 -434.34375 515.9140625 C-436.03515625 514.26953125 -436.03515625 514.26953125 -437.90625 512.1015625 C-438.52628906 511.39386719 -439.14632812 510.68617188 -439.78515625 509.95703125 C-441.34375 507.9140625 -441.34375 507.9140625 -442.34375 504.9140625 C-443.00375 504.5840625 -443.66375 504.2540625 -444.34375 503.9140625 C-446.34375 502.9140625 -446.34375 502.9140625 -447.34375 499.9140625 C-448.00375 499.9140625 -448.66375 499.9140625 -449.34375 499.9140625 C-451.03515625 498.26953125 -451.03515625 498.26953125 -452.90625 496.1015625 C-453.52628906 495.39386719 -454.14632812 494.68617188 -454.78515625 493.95703125 C-456.34375 491.9140625 -456.34375 491.9140625 -457.34375 488.9140625 C-458.00375 488.5840625 -458.66375 488.2540625 -459.34375 487.9140625 C-461.34375 486.9140625 -461.34375 486.9140625 -462.34375 483.9140625 C-463.33375 483.5840625 -464.32375 483.2540625 -465.34375 482.9140625 C-466.88671875 481.34765625 -466.88671875 481.34765625 -468.53125 479.3515625 C-471.04567201 476.38093734 -473.62763043 473.57695181 -476.40625 470.8515625 C-479.51220326 467.79988804 -482.36602036 464.63535667 -485.1171875 461.26171875 C-486.32295282 459.77427103 -486.32295282 459.77427103 -488.34375 458.9140625 C-487.76485619 455.62651739 -486.79546589 453.97733755 -484.40625 451.6640625 C-483.88160156 451.14328125 -483.35695313 450.6225 -482.81640625 450.0859375 C-481.34375 448.9140625 -481.34375 448.9140625 -479.34375 448.9140625 C-479.34375 448.2540625 -479.34375 447.5940625 -479.34375 446.9140625 C-477.83984375 445.43359375 -477.83984375 445.43359375 -475.78125 443.7265625 C-473.0183632 441.38126492 -470.37695243 439.00576845 -467.84375 436.4140625 C-465.53631979 434.06193882 -463.16673807 431.85027786 -460.66796875 429.703125 C-456.22568952 425.8405402 -451.93327678 421.8329359 -447.65625 417.7890625 C-446.92341797 417.09941406 -446.19058594 416.40976562 -445.43554688 415.69921875 C-442.38454574 412.82153869 -439.35542258 409.94619989 -436.44921875 406.921875 C-434.34375 404.9140625 -434.34375 404.9140625 -432.34375 404.9140625 C-432.08980469 404.32238281 -431.83585937 403.73070312 -431.57421875 403.12109375 C-430.20821788 400.6709652 -428.81438789 399.3781043 -426.65625 397.6015625 C-423.93189836 395.29936264 -421.33713129 392.9647629 -418.84375 390.4140625 C-415.80542583 387.32049607 -412.5960968 384.49300743 -409.3125 381.6640625 C-407.41351929 379.97607964 -405.62369012 378.22636516 -403.84375 376.4140625 C-400.85617603 373.37241479 -397.70386651 370.59807841 -394.46875 367.82421875 C-391.2322508 364.91493914 -388.23652292 361.777775 -385.2265625 358.63671875 C-383.34375 356.9140625 -383.34375 356.9140625 -381.34375 356.9140625 C-381.34375 356.2540625 -381.34375 355.5940625 -381.34375 354.9140625 C-379.89916992 353.4753418 -379.89916992 353.4753418 -377.88671875 351.80078125 C-372.54984543 347.26308737 -367.50665465 342.44159173 -362.43554688 337.61132812 C-358.84673632 334.2102101 -355.25183095 330.95128195 -351.34375 327.9140625 C-349.65377677 326.27103297 -347.99158606 324.59934938 -346.34375 322.9140625 C-341.4841233 317.96116081 -336.57653163 313.1770218 -331.30859375 308.66015625 C-329.23554676 306.81790575 -327.28939198 304.89004588 -325.34375 302.9140625 C-322.80402814 300.3348119 -320.21923686 297.89188861 -317.46875 295.5390625 C-313.43936554 292.07853232 -309.73520122 288.34312051 -306.03125 284.5390625 C-303.25595681 281.82831101 -300.37084684 279.29778442 -297.44091797 276.75732422 C-294.01676374 273.74773581 -290.71475799 270.61209716 -287.40625 267.4765625 C-285.90758819 266.06115968 -284.40888923 264.64579621 -282.91015625 263.23046875 C-282.15234863 262.51391113 -281.39454102 261.79735352 -280.61376953 261.05908203 C-276.33296562 257.01400318 -272.04244853 252.97921919 -267.74951172 248.94702148 C-264.0314942 245.45280947 -260.32601883 241.94641317 -256.63671875 238.421875 C-255.48042969 237.32166016 -255.48042969 237.32166016 -254.30078125 236.19921875 C-252.82187292 234.79158311 -251.34642968 233.38029513 -249.875 231.96484375 C-248.87533203 231.01544922 -248.87533203 231.01544922 -247.85546875 230.046875 C-247.27240967 229.48887207 -246.68935059 228.93086914 -246.08862305 228.35595703 C-244.26994496 226.85307292 -242.48789874 225.88250154 -240.34375 224.9140625 C-240.34375 224.2540625 -240.34375 223.5940625 -240.34375 222.9140625 C-238.9453125 221.5390625 -238.9453125 221.5390625 -236.96875 219.9140625 C-233.59579852 217.05360895 -230.44701523 214.06536589 -227.34375 210.9140625 C-222.59312862 206.11251563 -217.62207908 201.68698252 -212.46875 197.328125 C-211.870625 196.82023438 -211.2725 196.31234375 -210.65625 195.7890625 C-210.13675781 195.35335937 -209.61726563 194.91765625 -209.08203125 194.46875 C-205.89647559 191.61964629 -202.94805752 188.5272424 -199.94921875 185.484375 C-195.5488093 181.03420325 -191.09532722 176.75796656 -186.33984375 172.69140625 C-183.35886819 170.03711294 -180.59087517 167.18417613 -177.8125 164.3203125 C-175.12125692 161.69720216 -172.31309875 159.25008255 -169.47558594 156.78759766 C-165.98436175 153.71938254 -162.60291481 150.53685057 -159.21875 147.3515625 C-158.20361328 146.40120117 -158.20361328 146.40120117 -157.16796875 145.43164062 C-154.03916014 142.49346542 -150.96109562 139.53420159 -147.9765625 136.44921875 C-145.34375 133.9140625 -145.34375 133.9140625 -143.34375 133.9140625 C-143.01375 132.9240625 -142.68375 131.9340625 -142.34375 130.9140625 C-140.80371094 129.38208008 -140.80371094 129.38208008 -138.828125 127.74609375 C-135.79602031 125.17448489 -132.85748542 122.54933859 -129.984375 119.80078125 C-129.26121094 119.11048828 -128.53804688 118.42019531 -127.79296875 117.70898438 C-126.30891886 116.28687973 -124.8271987 114.86234042 -123.34765625 113.43554688 C-122.27064453 112.40977539 -122.27064453 112.40977539 -121.171875 111.36328125 C-120.5315332 110.74799561 -119.89119141 110.13270996 -119.23144531 109.4987793 C-117.34375 107.9140625 -117.34375 107.9140625 -115.16699219 106.88598633 C-112.98755322 105.99281658 -112.98755322 105.99281658 -112.34375 102.9140625 C-110.8125 101.40625 -110.8125 101.40625 -108.84375 99.7890625 C-104.94749941 96.49116468 -101.36563513 92.98277487 -97.8125 89.3203125 C-95.11619664 86.69226998 -92.30118722 84.24218111 -89.45849609 81.77490234 C-86.02983707 78.75790407 -82.7207983 75.61778048 -79.40625 72.4765625 C-77.91018209 71.06377472 -76.41408758 69.65101511 -74.91796875 68.23828125 C-74.1604834 67.5220459 -73.40299805 66.80581055 -72.62255859 66.06787109 C-68.99242082 62.63685808 -65.35585482 59.2126869 -61.71875 55.7890625 C-61.02249512 55.13333252 -60.32624023 54.47760254 -59.60888672 53.80200195 C-54.14459415 48.65895126 -48.66156026 43.53621737 -43.16357422 38.42919922 C-42.58752441 37.89311035 -42.01147461 37.35702148 -41.41796875 36.8046875 C-40.88349121 36.30775391 -40.34901367 35.81082031 -39.79833984 35.29882812 C-38.51406093 34.07619805 -37.2782046 32.80313612 -36.05078125 31.5234375 C-34.34375 29.9140625 -34.34375 29.9140625 -32.34375 29.9140625 C-32.01375 28.9240625 -31.68375 27.9340625 -31.34375 26.9140625 C-29.77734375 25.37109375 -29.77734375 25.37109375 -27.78125 23.7265625 C-24.83362358 21.23080038 -22.04800934 18.67187153 -19.34375 15.9140625 C-16.08601374 12.6051241 -12.69414069 9.53316885 -9.15625 6.52734375 C-7.51872941 5.06980926 -6.10327877 3.55553576 -4.65625 1.9140625 C-2.34375 -0.0859375 -2.34375 -0.0859375 0 0 Z " fill="#E25757" transform="translate(499.34375,7.0859375)"/>
<path d="M0 0 C0 3 0 3 -1.75 4.82421875 C-2.4925 5.43910156 -3.235 6.05398438 -4 6.6875 C-4.7425 7.31011719 -5.485 7.93273437 -6.25 8.57421875 C-6.8275 9.04472656 -7.405 9.51523437 -8 10 C-8.66 9.67 -9.32 9.34 -10 9 C-8.71142987 7.68445979 -7.41904109 6.37265903 -6.125 5.0625 C-5.04605469 3.96615234 -5.04605469 3.96615234 -3.9453125 2.84765625 C-2 1 -2 1 0 0 Z " fill="#D35759" transform="translate(101,379)"/>
<path d="M0 0 C0.99 0.99 1.98 1.98 3 3 C1.02 5.97 1.02 5.97 -1 9 C-1.66 8.67 -2.32 8.34 -3 8 C-2.34 7.01 -1.68 6.02 -1 5 C-0.61500109 3.34450469 -0.27206865 1.6777567 0 0 Z " fill="#D15858" transform="translate(993,459)"/>
</svg>
